<svg xmlns="http://www.w3.org/2000/svg" viewBox="15 45 130 70" xmlns:xlink="http://www.w3.org/1999/xlink">
  <defs>
    <linearGradient id="b" x1="0%" x2="100%" y1="0%" y2="100%">
      <stop offset="0%" stop-color="#fff" stop-opacity=".3"/>
      <stop offset="50%" stop-color="#f8fafc" stop-opacity=".1"/>
      <stop offset="100%" stop-color="#e2e8f0" stop-opacity=".2"/>
    </linearGradient>
    <linearGradient id="f" x1="0%" x2="0%" y1="0%" y2="100%">
      <stop offset="0%" stop-color="#60a5fa"/>
      <stop offset="45%" stop-color="#3b82f6"/>
      <stop offset="55%" stop-color="#2563eb"/>
      <stop offset="100%" stop-color="#1d4ed8"/>
    </linearGradient>
    <linearGradient id="g" x1="0%" x2="0%" y1="0%" y2="100%">
      <stop offset="0%" stop-color="#2563eb"/>
      <stop offset="45%" stop-color="#1d4ed8"/>
      <stop offset="55%" stop-color="#1e40af"/>
      <stop offset="100%" stop-color="#1e3a8a"/>
    </linearGradient>
    <linearGradient id="e" x1="0%" x2="0%" y1="0%" y2="100%">
      <stop offset="0%" stop-color="#475569"/>
      <stop offset="45%" stop-color="#334155"/>
      <stop offset="55%" stop-color="#1e293b"/>
      <stop offset="100%" stop-color="#0f172a"/>
    </linearGradient>
    <filter id="a" width="140%" height="140%" x="-20%" y="-20%">
      <feGaussianBlur in="SourceAlpha" stdDeviation="2"/>
      <feOffset dx="2" dy="2" result="offsetblur"/>
      <feComponentTransfer>
        <feFuncA slope=".3" type="linear"/>
      </feComponentTransfer>
      <feMerge>
        <feMergeNode/>
        <feMergeNode in="SourceGraphic"/>
      </feMerge>
    </filter>
    <filter id="d" width="200%" height="200%" x="-50%" y="-50%">
      <feGaussianBlur in="SourceAlpha" result="blur" stdDeviation="1"/>
      <feOffset dy="1"/>
      <feComposite in="SourceGraphic" k2="-1" k3="1" operator="arithmetic"/>
    </filter>
    <filter id="c">
      <feGaussianBlur in="SourceAlpha" stdDeviation=".5"/>
      <feOffset dx="-.5" dy="-.5" result="offsetblur"/>
      <feMerge>
        <feMergeNode/>
        <feMergeNode in="SourceGraphic"/>
      </feMerge>
    </filter>
  </defs>
  <g filter="url(#a)" transform="translate(15 50)">
    <path fill="#ef4444" stroke="#dc2626" d="M0 0h35l10 10v50H0z"/>
    <path fill="url(#b)" d="M0 0h35l10 10v50H0z" opacity=".7"/>
    <path fill="none" stroke="#b91c1c" d="M35 0v10h10" filter="url(#c)"/>
    <g filter="url(#d)">
      <text x="7" y="35" fill="#fff" stroke="#fff" stroke-width=".3" font-family="Arial, sans-serif" font-size="16" font-weight="bold">
          PDF
        </text>
    </g>
  </g>
  <g filter="url(#a)" transform="translate(70 85)">
    <rect width="18" height="5" y="-2.5" fill="url(#e)" rx="2.5"/>
    <path fill="url(#e)" d="m15-7 12 7-12 7Z"/>
    <rect width="16" height="1" x="1" y="-1.5" fill="#fff" opacity=".3" rx="1"/>
  </g>
  <g filter="url(#a)" transform="translate(100 50)">
    <rect width="45" height="60" fill="url(#f)" stroke="#1e40af" rx="6"/>
    <rect width="45" height="12" fill="url(#g)" rx="6"/>
    <g filter="url(#d)">
      <g fill="#fff" font-family="Arial, sans-serif" font-size="8">
        <text x="8" y="30">15</text>
        <text x="25" y="30">16</text>
        <text x="8" y="45">17</text>
        <text x="25" y="45">18</text>
      </g>
      <path stroke="#fff" d="M22 20v35M5 35h35" opacity=".5"/>
    </g>
  </g>
</svg>